<mxfile host="Electron" modified="2023-09-10T19:38:20.793Z" agent="Mozilla/5.0 (Windows NT 10.0; Win64; x64) AppleWebKit/537.36 (KHTML, like Gecko) draw.io/21.6.8 Chrome/114.0.5735.289 Electron/25.5.0 Safari/537.36" etag="7DZgFYdSA2VM2r9xP65H" version="21.6.8" type="device">
  <diagram name="Página-1" id="dJx56YB7KGcAiy5-ZDgh">
    <mxGraphModel dx="924" dy="828" grid="1" gridSize="10" guides="1" tooltips="1" connect="1" arrows="1" fold="1" page="1" pageScale="1" pageWidth="827" pageHeight="1169" math="0" shadow="0">
      <root>
        <mxCell id="0" />
        <mxCell id="1" parent="0" />
        <mxCell id="mAbyE8N8R_fkNbjM-QfM-8" value="&lt;blockquote style=&quot;margin: 0 0 0 40px; border: none; padding: 0px;&quot;&gt;Sistema&lt;/blockquote&gt;" style="verticalAlign=top;align=left;spacingTop=8;spacingLeft=2;spacingRight=12;shape=cube;size=10;direction=south;fontStyle=4;html=1;whiteSpace=wrap;" parent="1" vertex="1">
          <mxGeometry x="150" y="120" width="390" height="290" as="geometry" />
        </mxCell>
        <mxCell id="mAbyE8N8R_fkNbjM-QfM-3" value="Registrar presión sanguinea" style="ellipse;whiteSpace=wrap;html=1;" parent="1" vertex="1">
          <mxGeometry x="170" y="220" width="120" height="40" as="geometry" />
        </mxCell>
        <mxCell id="mAbyE8N8R_fkNbjM-QfM-5" value="Completar campos correctamente" style="ellipse;whiteSpace=wrap;html=1;" parent="1" vertex="1">
          <mxGeometry x="275" y="330" width="120" height="40" as="geometry" />
        </mxCell>
        <mxCell id="mAbyE8N8R_fkNbjM-QfM-6" value="" style="endArrow=none;html=1;rounded=0;entryX=0;entryY=0.5;entryDx=0;entryDy=0;" parent="1" source="K1TIRmsB3LrToRA-tq1_-1" target="mAbyE8N8R_fkNbjM-QfM-3" edge="1">
          <mxGeometry width="50" height="50" relative="1" as="geometry">
            <mxPoint x="40" y="400" as="sourcePoint" />
            <mxPoint x="90" y="350" as="targetPoint" />
          </mxGeometry>
        </mxCell>
        <mxCell id="mAbyE8N8R_fkNbjM-QfM-9" value="" style="endArrow=block;dashed=1;endFill=0;endSize=12;html=1;rounded=0;exitX=0.45;exitY=1.02;exitDx=0;exitDy=0;entryX=0;entryY=0.5;entryDx=0;entryDy=0;exitPerimeter=0;" parent="1" source="mAbyE8N8R_fkNbjM-QfM-3" target="mAbyE8N8R_fkNbjM-QfM-5" edge="1">
          <mxGeometry width="160" relative="1" as="geometry">
            <mxPoint x="80" y="430" as="sourcePoint" />
            <mxPoint x="240" y="430" as="targetPoint" />
          </mxGeometry>
        </mxCell>
        <mxCell id="mAbyE8N8R_fkNbjM-QfM-10" value="Include" style="edgeLabel;html=1;align=center;verticalAlign=middle;resizable=0;points=[];" parent="mAbyE8N8R_fkNbjM-QfM-9" vertex="1" connectable="0">
          <mxGeometry x="0.0798" y="2" relative="1" as="geometry">
            <mxPoint as="offset" />
          </mxGeometry>
        </mxCell>
        <mxCell id="K1TIRmsB3LrToRA-tq1_-1" value="Paciente" style="shape=umlActor;verticalLabelPosition=bottom;verticalAlign=top;html=1;outlineConnect=0;" parent="1" vertex="1">
          <mxGeometry x="90" y="235" width="30" height="60" as="geometry" />
        </mxCell>
        <mxCell id="K1TIRmsB3LrToRA-tq1_-2" value="Almacenar registro" style="ellipse;whiteSpace=wrap;html=1;" parent="1" vertex="1">
          <mxGeometry x="380" y="220" width="120" height="40" as="geometry" />
        </mxCell>
        <mxCell id="K1TIRmsB3LrToRA-tq1_-7" value="Extend" style="endArrow=open;endFill=1;endSize=12;html=1;rounded=0;exitX=0;exitY=0.5;exitDx=0;exitDy=0;entryX=1;entryY=0.5;entryDx=0;entryDy=0;" parent="1" source="K1TIRmsB3LrToRA-tq1_-2" target="mAbyE8N8R_fkNbjM-QfM-3" edge="1">
          <mxGeometry width="160" relative="1" as="geometry">
            <mxPoint x="280" y="70" as="sourcePoint" />
            <mxPoint x="300" y="250" as="targetPoint" />
            <Array as="points">
              <mxPoint x="350" y="240" />
            </Array>
          </mxGeometry>
        </mxCell>
      </root>
    </mxGraphModel>
  </diagram>
</mxfile>
